%TF.GenerationSoftware,KiCad,Pcbnew,9.0.6*%
%TF.CreationDate,2026-04-14T12:08:07-07:00*%
%TF.ProjectId,magnetic_encoder,6d61676e-6574-4696-935f-656e636f6465,rev?*%
%TF.SameCoordinates,Original*%
%TF.FileFunction,Copper,L2,Inr*%
%TF.FilePolarity,Positive*%
%FSLAX46Y46*%
G04 Gerber Fmt 4.6, Leading zero omitted, Abs format (unit mm)*
G04 Created by KiCad (PCBNEW 9.0.6) date 2026-04-14 12:08:07*
%MOMM*%
%LPD*%
G01*
G04 APERTURE LIST*
%TA.AperFunction,ComponentPad*%
%ADD10R,1.700000X1.700000*%
%TD*%
%TA.AperFunction,ViaPad*%
%ADD11C,0.850000*%
%TD*%
G04 APERTURE END LIST*
D10*
%TO.N,CAL_EN*%
%TO.C,J4*%
X143200000Y-110975000D03*
%TD*%
D11*
%TO.N,B_OUT*%
X154425000Y-98175000D03*
%TO.N,CIPO*%
X148912500Y-95787500D03*
%TO.N,PWM_OUT*%
X153900000Y-104000000D03*
%TO.N,CSEL*%
X150200000Y-102250000D03*
%TO.N,Z_OUT*%
X154275000Y-100400000D03*
%TO.N,U_OUT *%
X144175000Y-97275000D03*
%TO.N,SCK *%
X153175000Y-95875000D03*
%TO.N,PICO*%
X149575734Y-99075736D03*
%TO.N,A_OUT*%
X155600000Y-97250000D03*
%TO.N,V_OUT *%
X140925000Y-100600000D03*
%TO.N,W_OUT *%
X145689590Y-99067160D03*
%TO.N,GND_CONN*%
X151225000Y-101250000D03*
X147275000Y-96000000D03*
X152550000Y-108650000D03*
X153750000Y-87875000D03*
%TO.N,5V_IN*%
X151600000Y-102300000D03*
X145650000Y-89225000D03*
X145800000Y-95950000D03*
%TD*%
%TA.AperFunction,Conductor*%
%TO.N,GND_CONN*%
G36*
X161666501Y-85595185D02*
G01*
X161712256Y-85647989D01*
X161722200Y-85717147D01*
X161693175Y-85780703D01*
X161661462Y-85806887D01*
X161486196Y-85908075D01*
X161278148Y-86067718D01*
X161092718Y-86253148D01*
X160933075Y-86461196D01*
X160801958Y-86688299D01*
X160801953Y-86688309D01*
X160701605Y-86930571D01*
X160701602Y-86930581D01*
X160633730Y-87183885D01*
X160599500Y-87443872D01*
X160599500Y-87706127D01*
X160620436Y-87865140D01*
X160633730Y-87966116D01*
X160652155Y-88034878D01*
X160701602Y-88219418D01*
X160701605Y-88219428D01*
X160801953Y-88461690D01*
X160801958Y-88461700D01*
X160933075Y-88688803D01*
X161092718Y-88896851D01*
X161092726Y-88896860D01*
X161278140Y-89082274D01*
X161278148Y-89082281D01*
X161486196Y-89241924D01*
X161713299Y-89373041D01*
X161713309Y-89373046D01*
X161955571Y-89473394D01*
X161955581Y-89473398D01*
X162208884Y-89541270D01*
X162468880Y-89575500D01*
X162468887Y-89575500D01*
X162731113Y-89575500D01*
X162731120Y-89575500D01*
X162991116Y-89541270D01*
X163244419Y-89473398D01*
X163486697Y-89373043D01*
X163713803Y-89241924D01*
X163921851Y-89082282D01*
X163921855Y-89082277D01*
X163921860Y-89082274D01*
X164107274Y-88896860D01*
X164107277Y-88896855D01*
X164107282Y-88896851D01*
X164266924Y-88688803D01*
X164337071Y-88567304D01*
X164368113Y-88513538D01*
X164418679Y-88465322D01*
X164487286Y-88452098D01*
X164552151Y-88478066D01*
X164592680Y-88534980D01*
X164599500Y-88575537D01*
X164599500Y-111574462D01*
X164579815Y-111641501D01*
X164527011Y-111687256D01*
X164457853Y-111697200D01*
X164394297Y-111668175D01*
X164368113Y-111636462D01*
X164266924Y-111461196D01*
X164107281Y-111253148D01*
X164107274Y-111253140D01*
X163921860Y-111067726D01*
X163921851Y-111067718D01*
X163713803Y-110908075D01*
X163486700Y-110776958D01*
X163486690Y-110776953D01*
X163244428Y-110676605D01*
X163244421Y-110676603D01*
X163244419Y-110676602D01*
X162991116Y-110608730D01*
X162933339Y-110601123D01*
X162731127Y-110574500D01*
X162731120Y-110574500D01*
X162468880Y-110574500D01*
X162468872Y-110574500D01*
X162237772Y-110604926D01*
X162208884Y-110608730D01*
X161955581Y-110676602D01*
X161955571Y-110676605D01*
X161713309Y-110776953D01*
X161713299Y-110776958D01*
X161486196Y-110908075D01*
X161278148Y-111067718D01*
X161092718Y-111253148D01*
X160933075Y-111461196D01*
X160801958Y-111688299D01*
X160801953Y-111688309D01*
X160701605Y-111930571D01*
X160701602Y-111930581D01*
X160634089Y-112182547D01*
X160633730Y-112183885D01*
X160599500Y-112443872D01*
X160599500Y-112706127D01*
X160620436Y-112865140D01*
X160633730Y-112966116D01*
X160652155Y-113034878D01*
X160701602Y-113219418D01*
X160701605Y-113219428D01*
X160801953Y-113461690D01*
X160801958Y-113461700D01*
X160933075Y-113688803D01*
X161092718Y-113896851D01*
X161092726Y-113896860D01*
X161278140Y-114082274D01*
X161278148Y-114082281D01*
X161486196Y-114241924D01*
X161661462Y-114343113D01*
X161709677Y-114393680D01*
X161722901Y-114462287D01*
X161696933Y-114527151D01*
X161640019Y-114567680D01*
X161599462Y-114574500D01*
X138600538Y-114574500D01*
X138533499Y-114554815D01*
X138487744Y-114502011D01*
X138477800Y-114432853D01*
X138506825Y-114369297D01*
X138538538Y-114343113D01*
X138713803Y-114241924D01*
X138921851Y-114082282D01*
X138921855Y-114082277D01*
X138921860Y-114082274D01*
X139107274Y-113896860D01*
X139107277Y-113896855D01*
X139107282Y-113896851D01*
X139266924Y-113688803D01*
X139398043Y-113461697D01*
X139498398Y-113219419D01*
X139566270Y-112966116D01*
X139600500Y-112706120D01*
X139600500Y-112443880D01*
X139566270Y-112183884D01*
X139498398Y-111930581D01*
X139474494Y-111872872D01*
X139398046Y-111688309D01*
X139398041Y-111688299D01*
X139266924Y-111461196D01*
X139107281Y-111253148D01*
X139107274Y-111253140D01*
X138921860Y-111067726D01*
X138921851Y-111067718D01*
X138713803Y-110908075D01*
X138486700Y-110776958D01*
X138486690Y-110776953D01*
X138244428Y-110676605D01*
X138244421Y-110676603D01*
X138244419Y-110676602D01*
X137991116Y-110608730D01*
X137933339Y-110601123D01*
X137731127Y-110574500D01*
X137731120Y-110574500D01*
X137468880Y-110574500D01*
X137468872Y-110574500D01*
X137237772Y-110604926D01*
X137208884Y-110608730D01*
X136955581Y-110676602D01*
X136955571Y-110676605D01*
X136713309Y-110776953D01*
X136713299Y-110776958D01*
X136486196Y-110908075D01*
X136278148Y-111067718D01*
X136092718Y-111253148D01*
X135933075Y-111461196D01*
X135831887Y-111636462D01*
X135781320Y-111684677D01*
X135712713Y-111697901D01*
X135647849Y-111671933D01*
X135607320Y-111615019D01*
X135600500Y-111574462D01*
X135600500Y-110077135D01*
X141849500Y-110077135D01*
X141849500Y-111872870D01*
X141849501Y-111872876D01*
X141855908Y-111932483D01*
X141906202Y-112067328D01*
X141906206Y-112067335D01*
X141992452Y-112182544D01*
X141992455Y-112182547D01*
X142107664Y-112268793D01*
X142107671Y-112268797D01*
X142242517Y-112319091D01*
X142242516Y-112319091D01*
X142249444Y-112319835D01*
X142302127Y-112325500D01*
X144097872Y-112325499D01*
X144157483Y-112319091D01*
X144292331Y-112268796D01*
X144407546Y-112182546D01*
X144493796Y-112067331D01*
X144544091Y-111932483D01*
X144550500Y-111872873D01*
X144550499Y-110077128D01*
X144544091Y-110017517D01*
X144493796Y-109882669D01*
X144493795Y-109882668D01*
X144493793Y-109882664D01*
X144407547Y-109767455D01*
X144407544Y-109767452D01*
X144292335Y-109681206D01*
X144292328Y-109681202D01*
X144157482Y-109630908D01*
X144157483Y-109630908D01*
X144097883Y-109624501D01*
X144097881Y-109624500D01*
X144097873Y-109624500D01*
X144097864Y-109624500D01*
X142302129Y-109624500D01*
X142302123Y-109624501D01*
X142242516Y-109630908D01*
X142107671Y-109681202D01*
X142107664Y-109681206D01*
X141992455Y-109767452D01*
X141992452Y-109767455D01*
X141906206Y-109882664D01*
X141906202Y-109882671D01*
X141855908Y-110017517D01*
X141849501Y-110077116D01*
X141849501Y-110077123D01*
X141849500Y-110077135D01*
X135600500Y-110077135D01*
X135600500Y-104091156D01*
X152974499Y-104091156D01*
X153010065Y-104269952D01*
X153010068Y-104269962D01*
X153079831Y-104438387D01*
X153079833Y-104438391D01*
X153181113Y-104589967D01*
X153181119Y-104589975D01*
X153310024Y-104718880D01*
X153310032Y-104718886D01*
X153461608Y-104820166D01*
X153461612Y-104820168D01*
X153630037Y-104889931D01*
X153630042Y-104889933D01*
X153630046Y-104889933D01*
X153630047Y-104889934D01*
X153808843Y-104925500D01*
X153808846Y-104925500D01*
X153991156Y-104925500D01*
X154111445Y-104901572D01*
X154169958Y-104889933D01*
X154338389Y-104820167D01*
X154338391Y-104820166D01*
X154413672Y-104769864D01*
X154489972Y-104718883D01*
X154618883Y-104589972D01*
X154720167Y-104438389D01*
X154789933Y-104269958D01*
X154825500Y-104091154D01*
X154825500Y-103908846D01*
X154825500Y-103908843D01*
X154789934Y-103730047D01*
X154789933Y-103730046D01*
X154789933Y-103730042D01*
X154789931Y-103730037D01*
X154720168Y-103561612D01*
X154720166Y-103561608D01*
X154618886Y-103410032D01*
X154618880Y-103410024D01*
X154489975Y-103281119D01*
X154489967Y-103281113D01*
X154338391Y-103179833D01*
X154338387Y-103179831D01*
X154169962Y-103110068D01*
X154169952Y-103110065D01*
X153991156Y-103074500D01*
X153991154Y-103074500D01*
X153808846Y-103074500D01*
X153808844Y-103074500D01*
X153630047Y-103110065D01*
X153630037Y-103110068D01*
X153461612Y-103179831D01*
X153461608Y-103179833D01*
X153310032Y-103281113D01*
X153310024Y-103281119D01*
X153181119Y-103410024D01*
X153181113Y-103410032D01*
X153079833Y-103561608D01*
X153079831Y-103561612D01*
X153010068Y-103730037D01*
X153010065Y-103730047D01*
X152974500Y-103908843D01*
X152974500Y-103908846D01*
X152974500Y-104091154D01*
X152974500Y-104091156D01*
X152974499Y-104091156D01*
X135600500Y-104091156D01*
X135600500Y-102341156D01*
X149274499Y-102341156D01*
X149310065Y-102519952D01*
X149310068Y-102519962D01*
X149379831Y-102688387D01*
X149379833Y-102688391D01*
X149481113Y-102839967D01*
X149481119Y-102839975D01*
X149610024Y-102968880D01*
X149610032Y-102968886D01*
X149761608Y-103070166D01*
X149761612Y-103070168D01*
X149930037Y-103139931D01*
X149930042Y-103139933D01*
X149930046Y-103139933D01*
X149930047Y-103139934D01*
X150108843Y-103175500D01*
X150108846Y-103175500D01*
X150291156Y-103175500D01*
X150411445Y-103151572D01*
X150469958Y-103139933D01*
X150638389Y-103070167D01*
X150638391Y-103070166D01*
X150786001Y-102971536D01*
X150789972Y-102968883D01*
X150789980Y-102968874D01*
X150794676Y-102965022D01*
X150796095Y-102966751D01*
X150848604Y-102938059D01*
X150918297Y-102943022D01*
X150962680Y-102971536D01*
X151010024Y-103018880D01*
X151010032Y-103018886D01*
X151161608Y-103120166D01*
X151161612Y-103120168D01*
X151295197Y-103175500D01*
X151330042Y-103189933D01*
X151330046Y-103189933D01*
X151330047Y-103189934D01*
X151508843Y-103225500D01*
X151508846Y-103225500D01*
X151691156Y-103225500D01*
X151811445Y-103201572D01*
X151869958Y-103189933D01*
X152038389Y-103120167D01*
X152038391Y-103120166D01*
X152113672Y-103069864D01*
X152189972Y-103018883D01*
X152318883Y-102889972D01*
X152420167Y-102738389D01*
X152489933Y-102569958D01*
X152525500Y-102391154D01*
X152525500Y-102208846D01*
X152525500Y-102208843D01*
X152489934Y-102030047D01*
X152489933Y-102030046D01*
X152489933Y-102030042D01*
X152469225Y-101980047D01*
X152420168Y-101861612D01*
X152420166Y-101861608D01*
X152318886Y-101710032D01*
X152318880Y-101710024D01*
X152189975Y-101581119D01*
X152189967Y-101581113D01*
X152038391Y-101479833D01*
X152038387Y-101479831D01*
X151869962Y-101410068D01*
X151869952Y-101410065D01*
X151691156Y-101374500D01*
X151691154Y-101374500D01*
X151508846Y-101374500D01*
X151508844Y-101374500D01*
X151330047Y-101410065D01*
X151330037Y-101410068D01*
X151161613Y-101479831D01*
X151010028Y-101581116D01*
X151005319Y-101584982D01*
X151003908Y-101583262D01*
X150951321Y-101611956D01*
X150881631Y-101606951D01*
X150837319Y-101578463D01*
X150789975Y-101531119D01*
X150789967Y-101531113D01*
X150638391Y-101429833D01*
X150638387Y-101429831D01*
X150469962Y-101360068D01*
X150469952Y-101360065D01*
X150291156Y-101324500D01*
X150291154Y-101324500D01*
X150108846Y-101324500D01*
X150108844Y-101324500D01*
X149930047Y-101360065D01*
X149930037Y-101360068D01*
X149761612Y-101429831D01*
X149761608Y-101429833D01*
X149610032Y-101531113D01*
X149610024Y-101531119D01*
X149481119Y-101660024D01*
X149481113Y-101660032D01*
X149379833Y-101811608D01*
X149379831Y-101811612D01*
X149310068Y-101980037D01*
X149310065Y-101980047D01*
X149274500Y-102158843D01*
X149274500Y-102158846D01*
X149274500Y-102341154D01*
X149274500Y-102341156D01*
X149274499Y-102341156D01*
X135600500Y-102341156D01*
X135600500Y-100691156D01*
X139999499Y-100691156D01*
X140035065Y-100869952D01*
X140035068Y-100869962D01*
X140104831Y-101038387D01*
X140104833Y-101038391D01*
X140206113Y-101189967D01*
X140206119Y-101189975D01*
X140335024Y-101318880D01*
X140335032Y-101318886D01*
X140486608Y-101420166D01*
X140486612Y-101420168D01*
X140630653Y-101479831D01*
X140655042Y-101489933D01*
X140655046Y-101489933D01*
X140655047Y-101489934D01*
X140833843Y-101525500D01*
X140833846Y-101525500D01*
X141016156Y-101525500D01*
X141136445Y-101501572D01*
X141194958Y-101489933D01*
X141363389Y-101420167D01*
X141363391Y-101420166D01*
X141453338Y-101360065D01*
X141514972Y-101318883D01*
X141643883Y-101189972D01*
X141745167Y-101038389D01*
X141814933Y-100869958D01*
X141850500Y-100691154D01*
X141850500Y-100508846D01*
X141850500Y-100508843D01*
X141846982Y-100491156D01*
X153349499Y-100491156D01*
X153385065Y-100669952D01*
X153385068Y-100669962D01*
X153454831Y-100838387D01*
X153454833Y-100838391D01*
X153556113Y-100989967D01*
X153556119Y-100989975D01*
X153685024Y-101118880D01*
X153685032Y-101118886D01*
X153836608Y-101220166D01*
X153836612Y-101220168D01*
X154005037Y-101289931D01*
X154005042Y-101289933D01*
X154005046Y-101289933D01*
X154005047Y-101289934D01*
X154183843Y-101325500D01*
X154183846Y-101325500D01*
X154366156Y-101325500D01*
X154486445Y-101301572D01*
X154544958Y-101289933D01*
X154713389Y-101220167D01*
X154713391Y-101220166D01*
X154788672Y-101169864D01*
X154864972Y-101118883D01*
X154993883Y-100989972D01*
X155074071Y-100869962D01*
X155095166Y-100838391D01*
X155095168Y-100838387D01*
X155118422Y-100782245D01*
X155164933Y-100669958D01*
X155196981Y-100508846D01*
X155200500Y-100491156D01*
X155200500Y-100308843D01*
X155164934Y-100130047D01*
X155164933Y-100130046D01*
X155164933Y-100130042D01*
X155115222Y-100010028D01*
X155095168Y-99961612D01*
X155095166Y-99961608D01*
X154993886Y-99810032D01*
X154993880Y-99810024D01*
X154864975Y-99681119D01*
X154864967Y-99681113D01*
X154713391Y-99579833D01*
X154713387Y-99579831D01*
X154544962Y-99510068D01*
X154544952Y-99510065D01*
X154366156Y-99474500D01*
X154366154Y-99474500D01*
X154183846Y-99474500D01*
X154183844Y-99474500D01*
X154005047Y-99510065D01*
X154005037Y-99510068D01*
X153836612Y-99579831D01*
X153836608Y-99579833D01*
X153685032Y-99681113D01*
X153685024Y-99681119D01*
X153556119Y-99810024D01*
X153556113Y-99810032D01*
X153454833Y-99961608D01*
X153454831Y-99961612D01*
X153385068Y-100130037D01*
X153385065Y-100130047D01*
X153349500Y-100308843D01*
X153349500Y-100308846D01*
X153349500Y-100491154D01*
X153349500Y-100491156D01*
X153349499Y-100491156D01*
X141846982Y-100491156D01*
X141814933Y-100330043D01*
X141814931Y-100330037D01*
X141745168Y-100161612D01*
X141745166Y-100161608D01*
X141643886Y-100010032D01*
X141643880Y-100010024D01*
X141514975Y-99881119D01*
X141514967Y-99881113D01*
X141363391Y-99779833D01*
X141363387Y-99779831D01*
X141194962Y-99710068D01*
X141194952Y-99710065D01*
X141016156Y-99674500D01*
X141016154Y-99674500D01*
X140833846Y-99674500D01*
X140833844Y-99674500D01*
X140655047Y-99710065D01*
X140655037Y-99710068D01*
X140486612Y-99779831D01*
X140486608Y-99779833D01*
X140335032Y-99881113D01*
X140335024Y-99881119D01*
X140206119Y-100010024D01*
X140206113Y-100010032D01*
X140104833Y-100161608D01*
X140104831Y-100161612D01*
X140035068Y-100330037D01*
X140035065Y-100330047D01*
X139999500Y-100508843D01*
X139999500Y-100508846D01*
X139999500Y-100691154D01*
X139999500Y-100691156D01*
X139999499Y-100691156D01*
X135600500Y-100691156D01*
X135600500Y-99158316D01*
X144764089Y-99158316D01*
X144799655Y-99337112D01*
X144799658Y-99337122D01*
X144869421Y-99505547D01*
X144869423Y-99505551D01*
X144970703Y-99657127D01*
X144970709Y-99657135D01*
X145099614Y-99786040D01*
X145099622Y-99786046D01*
X145251198Y-99887326D01*
X145251202Y-99887328D01*
X145419627Y-99957091D01*
X145419632Y-99957093D01*
X145419636Y-99957093D01*
X145419637Y-99957094D01*
X145598433Y-99992660D01*
X145598436Y-99992660D01*
X145780746Y-99992660D01*
X145916444Y-99965667D01*
X145959548Y-99957093D01*
X146127979Y-99887327D01*
X146127981Y-99887326D01*
X146203262Y-99837024D01*
X146279562Y-99786043D01*
X146408473Y-99657132D01*
X146460124Y-99579831D01*
X146509756Y-99505551D01*
X146509758Y-99505547D01*
X146575969Y-99345698D01*
X146579523Y-99337118D01*
X146613384Y-99166892D01*
X148650233Y-99166892D01*
X148685799Y-99345688D01*
X148685802Y-99345698D01*
X148755565Y-99514123D01*
X148755567Y-99514127D01*
X148856847Y-99665703D01*
X148856853Y-99665711D01*
X148985758Y-99794616D01*
X148985766Y-99794622D01*
X149137342Y-99895902D01*
X149137346Y-99895904D01*
X149285074Y-99957094D01*
X149305776Y-99965669D01*
X149305780Y-99965669D01*
X149305781Y-99965670D01*
X149484577Y-100001236D01*
X149484580Y-100001236D01*
X149666890Y-100001236D01*
X149787179Y-99977308D01*
X149845692Y-99965669D01*
X150014123Y-99895903D01*
X150014125Y-99895902D01*
X150089406Y-99845600D01*
X150165706Y-99794619D01*
X150294617Y-99665708D01*
X150395901Y-99514125D01*
X150397582Y-99510068D01*
X150465665Y-99345698D01*
X150465667Y-99345694D01*
X150501234Y-99166890D01*
X150501234Y-98984582D01*
X150501234Y-98984579D01*
X150465668Y-98805783D01*
X150465667Y-98805782D01*
X150465667Y-98805778D01*
X150448763Y-98764967D01*
X150395902Y-98637348D01*
X150395900Y-98637344D01*
X150294620Y-98485768D01*
X150294614Y-98485760D01*
X150165709Y-98356855D01*
X150165701Y-98356849D01*
X150029970Y-98266156D01*
X153499499Y-98266156D01*
X153535065Y-98444952D01*
X153535068Y-98444962D01*
X153604831Y-98613387D01*
X153604833Y-98613391D01*
X153706113Y-98764967D01*
X153706119Y-98764975D01*
X153835024Y-98893880D01*
X153835032Y-98893886D01*
X153986608Y-98995166D01*
X153986612Y-98995168D01*
X154155037Y-99064931D01*
X154155042Y-99064933D01*
X154155046Y-99064933D01*
X154155047Y-99064934D01*
X154333843Y-99100500D01*
X154333846Y-99100500D01*
X154516156Y-99100500D01*
X154636445Y-99076572D01*
X154694958Y-99064933D01*
X154863389Y-98995167D01*
X154863391Y-98995166D01*
X154938672Y-98944864D01*
X155014972Y-98893883D01*
X155143883Y-98764972D01*
X155229161Y-98637344D01*
X155245166Y-98613391D01*
X155245168Y-98613387D01*
X155298029Y-98485768D01*
X155314933Y-98444958D01*
X155349681Y-98270267D01*
X155382066Y-98208358D01*
X155442781Y-98173784D01*
X155495494Y-98172844D01*
X155508843Y-98175500D01*
X155508846Y-98175500D01*
X155691156Y-98175500D01*
X155849502Y-98144002D01*
X155869958Y-98139933D01*
X156038389Y-98070167D01*
X156038391Y-98070166D01*
X156152552Y-97993886D01*
X156189972Y-97968883D01*
X156318883Y-97839972D01*
X156387948Y-97736608D01*
X156420166Y-97688391D01*
X156420168Y-97688387D01*
X156443422Y-97632245D01*
X156489933Y-97519958D01*
X156522779Y-97354833D01*
X156525500Y-97341156D01*
X156525500Y-97158843D01*
X156489934Y-96980047D01*
X156489933Y-96980046D01*
X156489933Y-96980042D01*
X156431899Y-96839934D01*
X156420168Y-96811612D01*
X156420166Y-96811608D01*
X156318886Y-96660032D01*
X156318880Y-96660024D01*
X156189975Y-96531119D01*
X156189967Y-96531113D01*
X156038391Y-96429833D01*
X156038387Y-96429831D01*
X155869962Y-96360068D01*
X155869952Y-96360065D01*
X155691156Y-96324500D01*
X155691154Y-96324500D01*
X155508846Y-96324500D01*
X155508844Y-96324500D01*
X155330047Y-96360065D01*
X155330037Y-96360068D01*
X155161612Y-96429831D01*
X155161608Y-96429833D01*
X155010032Y-96531113D01*
X155010024Y-96531119D01*
X154881119Y-96660024D01*
X154881113Y-96660032D01*
X154779833Y-96811608D01*
X154779831Y-96811612D01*
X154710068Y-96980037D01*
X154710065Y-96980047D01*
X154675318Y-97154731D01*
X154642933Y-97216642D01*
X154582217Y-97251216D01*
X154529510Y-97252156D01*
X154516157Y-97249500D01*
X154516154Y-97249500D01*
X154333846Y-97249500D01*
X154333844Y-97249500D01*
X154155047Y-97285065D01*
X154155037Y-97285068D01*
X153986612Y-97354831D01*
X153986608Y-97354833D01*
X153835032Y-97456113D01*
X153835024Y-97456119D01*
X153706119Y-97585024D01*
X153706113Y-97585032D01*
X153604833Y-97736608D01*
X153604831Y-97736612D01*
X153535068Y-97905037D01*
X153535065Y-97905047D01*
X153499500Y-98083843D01*
X153499500Y-98083846D01*
X153499500Y-98266154D01*
X153499500Y-98266156D01*
X153499499Y-98266156D01*
X150029970Y-98266156D01*
X150014125Y-98255569D01*
X150014121Y-98255567D01*
X149861414Y-98192315D01*
X149861413Y-98192315D01*
X149845692Y-98185803D01*
X149845686Y-98185801D01*
X149666890Y-98150236D01*
X149666888Y-98150236D01*
X149484580Y-98150236D01*
X149484578Y-98150236D01*
X149305781Y-98185801D01*
X149305771Y-98185804D01*
X149137346Y-98255567D01*
X149137342Y-98255569D01*
X148985766Y-98356849D01*
X148985758Y-98356855D01*
X148856853Y-98485760D01*
X148856847Y-98485768D01*
X148755567Y-98637344D01*
X148755565Y-98637348D01*
X148685802Y-98805773D01*
X148685799Y-98805783D01*
X148650234Y-98984579D01*
X148650234Y-98984582D01*
X148650234Y-99166890D01*
X148650234Y-99166892D01*
X148650233Y-99166892D01*
X146613384Y-99166892D01*
X146615090Y-99158314D01*
X146615090Y-98976006D01*
X146615090Y-98976003D01*
X146579524Y-98797207D01*
X146579523Y-98797206D01*
X146579523Y-98797202D01*
X146513310Y-98637348D01*
X146509758Y-98628772D01*
X146509756Y-98628768D01*
X146408476Y-98477192D01*
X146408470Y-98477184D01*
X146279565Y-98348279D01*
X146279557Y-98348273D01*
X146127981Y-98246993D01*
X146127977Y-98246991D01*
X145959552Y-98177228D01*
X145959542Y-98177225D01*
X145780746Y-98141660D01*
X145780744Y-98141660D01*
X145598436Y-98141660D01*
X145598434Y-98141660D01*
X145419637Y-98177225D01*
X145419627Y-98177228D01*
X145251202Y-98246991D01*
X145251198Y-98246993D01*
X145099622Y-98348273D01*
X145099614Y-98348279D01*
X144970709Y-98477184D01*
X144970703Y-98477192D01*
X144869423Y-98628768D01*
X144869421Y-98628772D01*
X144799658Y-98797197D01*
X144799655Y-98797207D01*
X144764090Y-98976003D01*
X144764090Y-98976006D01*
X144764090Y-99158314D01*
X144764090Y-99158316D01*
X144764089Y-99158316D01*
X135600500Y-99158316D01*
X135600500Y-97366156D01*
X143249499Y-97366156D01*
X143285065Y-97544952D01*
X143285068Y-97544962D01*
X143354831Y-97713387D01*
X143354833Y-97713391D01*
X143456113Y-97864967D01*
X143456119Y-97864975D01*
X143585024Y-97993880D01*
X143585032Y-97993886D01*
X143736608Y-98095166D01*
X143736612Y-98095168D01*
X143869560Y-98150236D01*
X143905042Y-98164933D01*
X143905046Y-98164933D01*
X143905047Y-98164934D01*
X144083843Y-98200500D01*
X144083846Y-98200500D01*
X144266156Y-98200500D01*
X144405187Y-98172844D01*
X144444958Y-98164933D01*
X144613389Y-98095167D01*
X144613391Y-98095166D01*
X144688672Y-98044864D01*
X144764972Y-97993883D01*
X144893883Y-97864972D01*
X144995167Y-97713389D01*
X145005522Y-97688391D01*
X145048334Y-97585032D01*
X145064933Y-97544958D01*
X145100500Y-97366154D01*
X145100500Y-97183846D01*
X145100500Y-97183843D01*
X145064934Y-97005047D01*
X145064933Y-97005046D01*
X145064933Y-97005042D01*
X145054576Y-96980037D01*
X144995168Y-96836612D01*
X144995166Y-96836608D01*
X144927431Y-96735236D01*
X144927429Y-96735234D01*
X144893883Y-96685028D01*
X144855459Y-96646604D01*
X144855455Y-96646599D01*
X144764975Y-96556119D01*
X144764967Y-96556113D01*
X144613391Y-96454833D01*
X144613387Y-96454831D01*
X144444962Y-96385068D01*
X144444952Y-96385065D01*
X144266156Y-96349500D01*
X144266154Y-96349500D01*
X144083846Y-96349500D01*
X144083844Y-96349500D01*
X143905047Y-96385065D01*
X143905037Y-96385068D01*
X143736612Y-96454831D01*
X143736608Y-96454833D01*
X143585032Y-96556113D01*
X143585024Y-96556119D01*
X143456119Y-96685024D01*
X143456113Y-96685032D01*
X143354833Y-96836608D01*
X143354831Y-96836612D01*
X143285068Y-97005037D01*
X143285065Y-97005047D01*
X143249500Y-97183843D01*
X143249500Y-97183846D01*
X143249500Y-97366154D01*
X143249500Y-97366156D01*
X143249499Y-97366156D01*
X135600500Y-97366156D01*
X135600500Y-96041156D01*
X144874499Y-96041156D01*
X144910065Y-96219952D01*
X144910068Y-96219962D01*
X144979830Y-96388385D01*
X145031004Y-96464972D01*
X145081117Y-96539972D01*
X145119538Y-96578393D01*
X145119543Y-96578399D01*
X145210024Y-96668880D01*
X145210032Y-96668886D01*
X145361608Y-96770166D01*
X145361612Y-96770168D01*
X145522022Y-96836611D01*
X145530042Y-96839933D01*
X145530046Y-96839933D01*
X145530047Y-96839934D01*
X145708843Y-96875500D01*
X145708846Y-96875500D01*
X145891156Y-96875500D01*
X146011445Y-96851572D01*
X146069958Y-96839933D01*
X146238389Y-96770167D01*
X146238391Y-96770166D01*
X146323946Y-96713000D01*
X146389972Y-96668883D01*
X146518883Y-96539972D01*
X146592475Y-96429833D01*
X146620166Y-96388391D01*
X146620168Y-96388387D01*
X146689931Y-96219962D01*
X146689933Y-96219958D01*
X146725500Y-96041154D01*
X146725500Y-95878656D01*
X147986999Y-95878656D01*
X148022565Y-96057452D01*
X148022568Y-96057462D01*
X148092331Y-96225887D01*
X148092333Y-96225891D01*
X148193613Y-96377467D01*
X148193619Y-96377475D01*
X148322524Y-96506380D01*
X148322532Y-96506386D01*
X148474108Y-96607666D01*
X148474112Y-96607668D01*
X148642537Y-96677431D01*
X148642542Y-96677433D01*
X148642546Y-96677433D01*
X148642547Y-96677434D01*
X148821343Y-96713000D01*
X148821346Y-96713000D01*
X149003656Y-96713000D01*
X149144296Y-96685024D01*
X149182458Y-96677433D01*
X149350889Y-96607667D01*
X149350891Y-96607666D01*
X149465452Y-96531119D01*
X149502472Y-96506383D01*
X149631383Y-96377472D01*
X149732667Y-96225889D01*
X149802433Y-96057458D01*
X149814072Y-95998945D01*
X149820594Y-95966156D01*
X152249499Y-95966156D01*
X152285065Y-96144952D01*
X152285068Y-96144962D01*
X152354831Y-96313387D01*
X152354833Y-96313391D01*
X152456113Y-96464967D01*
X152456119Y-96464975D01*
X152585024Y-96593880D01*
X152585032Y-96593886D01*
X152736608Y-96695166D01*
X152736612Y-96695168D01*
X152905037Y-96764931D01*
X152905042Y-96764933D01*
X152905046Y-96764933D01*
X152905047Y-96764934D01*
X153083843Y-96800500D01*
X153083846Y-96800500D01*
X153266156Y-96800500D01*
X153418650Y-96770166D01*
X153444958Y-96764933D01*
X153613389Y-96695167D01*
X153613391Y-96695166D01*
X153744341Y-96607668D01*
X153764972Y-96593883D01*
X153893883Y-96464972D01*
X153995167Y-96313389D01*
X154064933Y-96144958D01*
X154100500Y-95966154D01*
X154100500Y-95783846D01*
X154100500Y-95783843D01*
X154064934Y-95605047D01*
X154064933Y-95605046D01*
X154064933Y-95605042D01*
X154028690Y-95517542D01*
X153995168Y-95436612D01*
X153995166Y-95436608D01*
X153893886Y-95285032D01*
X153893880Y-95285024D01*
X153764975Y-95156119D01*
X153764967Y-95156113D01*
X153613391Y-95054833D01*
X153613387Y-95054831D01*
X153444962Y-94985068D01*
X153444952Y-94985065D01*
X153266156Y-94949500D01*
X153266154Y-94949500D01*
X153083846Y-94949500D01*
X153083844Y-94949500D01*
X152905047Y-94985065D01*
X152905037Y-94985068D01*
X152736612Y-95054831D01*
X152736608Y-95054833D01*
X152585032Y-95156113D01*
X152585024Y-95156119D01*
X152456119Y-95285024D01*
X152456113Y-95285032D01*
X152354833Y-95436608D01*
X152354831Y-95436612D01*
X152285068Y-95605037D01*
X152285065Y-95605047D01*
X152249500Y-95783843D01*
X152249500Y-95783846D01*
X152249500Y-95966154D01*
X152249500Y-95966156D01*
X152249499Y-95966156D01*
X149820594Y-95966156D01*
X149838000Y-95878656D01*
X149838000Y-95696343D01*
X149802434Y-95517547D01*
X149802433Y-95517546D01*
X149802433Y-95517542D01*
X149768911Y-95436612D01*
X149732668Y-95349112D01*
X149732666Y-95349108D01*
X149631386Y-95197532D01*
X149631380Y-95197524D01*
X149502475Y-95068619D01*
X149502467Y-95068613D01*
X149350891Y-94967333D01*
X149350887Y-94967331D01*
X149182462Y-94897568D01*
X149182452Y-94897565D01*
X149003656Y-94862000D01*
X149003654Y-94862000D01*
X148821346Y-94862000D01*
X148821344Y-94862000D01*
X148642547Y-94897565D01*
X148642537Y-94897568D01*
X148474112Y-94967331D01*
X148474108Y-94967333D01*
X148322532Y-95068613D01*
X148322524Y-95068619D01*
X148193619Y-95197524D01*
X148193613Y-95197532D01*
X148092333Y-95349108D01*
X148092331Y-95349112D01*
X148022568Y-95517537D01*
X148022565Y-95517547D01*
X147987000Y-95696343D01*
X147987000Y-95696346D01*
X147987000Y-95878654D01*
X147987000Y-95878656D01*
X147986999Y-95878656D01*
X146725500Y-95878656D01*
X146725500Y-95858846D01*
X146725500Y-95858843D01*
X146696777Y-95714446D01*
X146689934Y-95680047D01*
X146689933Y-95680046D01*
X146689933Y-95680042D01*
X146689931Y-95680037D01*
X146620168Y-95511612D01*
X146620166Y-95511608D01*
X146518886Y-95360032D01*
X146518880Y-95360024D01*
X146389975Y-95231119D01*
X146389967Y-95231113D01*
X146238391Y-95129833D01*
X146238387Y-95129831D01*
X146069962Y-95060068D01*
X146069952Y-95060065D01*
X145891156Y-95024500D01*
X145891154Y-95024500D01*
X145708846Y-95024500D01*
X145708844Y-95024500D01*
X145530047Y-95060065D01*
X145530037Y-95060068D01*
X145361612Y-95129831D01*
X145361608Y-95129833D01*
X145210032Y-95231113D01*
X145210024Y-95231119D01*
X145081119Y-95360024D01*
X145081113Y-95360032D01*
X144979833Y-95511608D01*
X144979831Y-95511612D01*
X144910068Y-95680037D01*
X144910065Y-95680047D01*
X144874500Y-95858843D01*
X144874500Y-95858846D01*
X144874500Y-96041154D01*
X144874500Y-96041156D01*
X144874499Y-96041156D01*
X135600500Y-96041156D01*
X135600500Y-88575537D01*
X135620185Y-88508498D01*
X135672989Y-88462743D01*
X135742147Y-88452799D01*
X135805703Y-88481824D01*
X135831887Y-88513538D01*
X135933072Y-88688798D01*
X135933074Y-88688802D01*
X136092718Y-88896851D01*
X136092726Y-88896860D01*
X136278140Y-89082274D01*
X136278148Y-89082281D01*
X136486196Y-89241924D01*
X136713299Y-89373041D01*
X136713309Y-89373046D01*
X136955571Y-89473394D01*
X136955581Y-89473398D01*
X137208884Y-89541270D01*
X137468880Y-89575500D01*
X137468887Y-89575500D01*
X137731113Y-89575500D01*
X137731120Y-89575500D01*
X137991116Y-89541270D01*
X138244419Y-89473398D01*
X138486697Y-89373043D01*
X138585229Y-89316156D01*
X144724499Y-89316156D01*
X144760065Y-89494952D01*
X144760068Y-89494962D01*
X144829831Y-89663387D01*
X144829833Y-89663391D01*
X144931113Y-89814967D01*
X144931119Y-89814975D01*
X145060024Y-89943880D01*
X145060032Y-89943886D01*
X145211608Y-90045166D01*
X145211612Y-90045168D01*
X145380037Y-90114931D01*
X145380042Y-90114933D01*
X145380046Y-90114933D01*
X145380047Y-90114934D01*
X145558843Y-90150500D01*
X145558846Y-90150500D01*
X145741156Y-90150500D01*
X145861445Y-90126572D01*
X145919958Y-90114933D01*
X146088389Y-90045167D01*
X146088391Y-90045166D01*
X146163672Y-89994864D01*
X146239972Y-89943883D01*
X146368883Y-89814972D01*
X146470167Y-89663389D01*
X146539933Y-89494958D01*
X146575500Y-89316154D01*
X146575500Y-89133846D01*
X146575500Y-89133843D01*
X146539934Y-88955047D01*
X146539933Y-88955046D01*
X146539933Y-88955042D01*
X146539931Y-88955037D01*
X146470168Y-88786612D01*
X146470166Y-88786608D01*
X146368886Y-88635032D01*
X146368880Y-88635024D01*
X146239975Y-88506119D01*
X146239967Y-88506113D01*
X146088391Y-88404833D01*
X146088387Y-88404831D01*
X145919962Y-88335068D01*
X145919952Y-88335065D01*
X145741156Y-88299500D01*
X145741154Y-88299500D01*
X145558846Y-88299500D01*
X145558844Y-88299500D01*
X145380047Y-88335065D01*
X145380037Y-88335068D01*
X145211612Y-88404831D01*
X145211608Y-88404833D01*
X145060032Y-88506113D01*
X145060024Y-88506119D01*
X144931119Y-88635024D01*
X144931113Y-88635032D01*
X144829833Y-88786608D01*
X144829831Y-88786612D01*
X144760068Y-88955037D01*
X144760065Y-88955047D01*
X144724500Y-89133843D01*
X144724500Y-89133846D01*
X144724500Y-89316154D01*
X144724500Y-89316156D01*
X144724499Y-89316156D01*
X138585229Y-89316156D01*
X138713803Y-89241924D01*
X138921851Y-89082282D01*
X138921855Y-89082277D01*
X138921860Y-89082274D01*
X139107274Y-88896860D01*
X139107277Y-88896855D01*
X139107282Y-88896851D01*
X139266924Y-88688803D01*
X139398043Y-88461697D01*
X139498398Y-88219419D01*
X139566270Y-87966116D01*
X139600500Y-87706120D01*
X139600500Y-87443880D01*
X139566270Y-87183884D01*
X139498398Y-86930581D01*
X139498394Y-86930571D01*
X139398046Y-86688309D01*
X139398041Y-86688299D01*
X139266924Y-86461196D01*
X139107281Y-86253148D01*
X139107274Y-86253140D01*
X138921860Y-86067726D01*
X138921851Y-86067718D01*
X138713803Y-85908075D01*
X138538538Y-85806887D01*
X138490323Y-85756320D01*
X138477099Y-85687713D01*
X138503067Y-85622849D01*
X138559981Y-85582320D01*
X138600538Y-85575500D01*
X161599462Y-85575500D01*
X161666501Y-85595185D01*
G37*
%TD.AperFunction*%
%TD*%
M02*
