%TF.GenerationSoftware,KiCad,Pcbnew,9.0.6*%
%TF.CreationDate,2026-04-14T12:08:07-07:00*%
%TF.ProjectId,magnetic_encoder,6d61676e-6574-4696-935f-656e636f6465,rev?*%
%TF.SameCoordinates,Original*%
%TF.FileFunction,Legend,Top*%
%TF.FilePolarity,Positive*%
%FSLAX46Y46*%
G04 Gerber Fmt 4.6, Leading zero omitted, Abs format (unit mm)*
G04 Created by KiCad (PCBNEW 9.0.6) date 2026-04-14 12:08:07*
%MOMM*%
%LPD*%
G01*
G04 APERTURE LIST*
G04 Aperture macros list*
%AMRoundRect*
0 Rectangle with rounded corners*
0 $1 Rounding radius*
0 $2 $3 $4 $5 $6 $7 $8 $9 X,Y pos of 4 corners*
0 Add a 4 corners polygon primitive as box body*
4,1,4,$2,$3,$4,$5,$6,$7,$8,$9,$2,$3,0*
0 Add four circle primitives for the rounded corners*
1,1,$1+$1,$2,$3*
1,1,$1+$1,$4,$5*
1,1,$1+$1,$6,$7*
1,1,$1+$1,$8,$9*
0 Add four rect primitives between the rounded corners*
20,1,$1+$1,$2,$3,$4,$5,0*
20,1,$1+$1,$4,$5,$6,$7,0*
20,1,$1+$1,$6,$7,$8,$9,0*
20,1,$1+$1,$8,$9,$2,$3,0*%
G04 Aperture macros list end*
%ADD10C,0.100000*%
%ADD11C,0.150000*%
%ADD12C,0.120000*%
%ADD13RoundRect,0.218750X0.218750X0.256250X-0.218750X0.256250X-0.218750X-0.256250X0.218750X-0.256250X0*%
%ADD14RoundRect,0.100000X-0.637500X-0.100000X0.637500X-0.100000X0.637500X0.100000X-0.637500X0.100000X0*%
%ADD15RoundRect,0.135000X0.185000X-0.135000X0.185000X0.135000X-0.185000X0.135000X-0.185000X-0.135000X0*%
%ADD16RoundRect,0.225000X-0.250000X0.225000X-0.250000X-0.225000X0.250000X-0.225000X0.250000X0.225000X0*%
%ADD17RoundRect,0.250000X-0.650000X1.000000X-0.650000X-1.000000X0.650000X-1.000000X0.650000X1.000000X0*%
%ADD18RoundRect,0.135000X-0.135000X-0.185000X0.135000X-0.185000X0.135000X0.185000X-0.135000X0.185000X0*%
%ADD19R,1.700000X1.700000*%
G04 APERTURE END LIST*
D10*
X143053884Y-88372419D02*
X143053884Y-87372419D01*
X143053884Y-87372419D02*
X143434836Y-87372419D01*
X143434836Y-87372419D02*
X143530074Y-87420038D01*
X143530074Y-87420038D02*
X143577693Y-87467657D01*
X143577693Y-87467657D02*
X143625312Y-87562895D01*
X143625312Y-87562895D02*
X143625312Y-87705752D01*
X143625312Y-87705752D02*
X143577693Y-87800990D01*
X143577693Y-87800990D02*
X143530074Y-87848609D01*
X143530074Y-87848609D02*
X143434836Y-87896228D01*
X143434836Y-87896228D02*
X143053884Y-87896228D01*
X143958646Y-87372419D02*
X144196741Y-88372419D01*
X144196741Y-88372419D02*
X144387217Y-87658133D01*
X144387217Y-87658133D02*
X144577693Y-88372419D01*
X144577693Y-88372419D02*
X144815789Y-87372419D01*
X145768169Y-88372419D02*
X145434836Y-87896228D01*
X145196741Y-88372419D02*
X145196741Y-87372419D01*
X145196741Y-87372419D02*
X145577693Y-87372419D01*
X145577693Y-87372419D02*
X145672931Y-87420038D01*
X145672931Y-87420038D02*
X145720550Y-87467657D01*
X145720550Y-87467657D02*
X145768169Y-87562895D01*
X145768169Y-87562895D02*
X145768169Y-87705752D01*
X145768169Y-87705752D02*
X145720550Y-87800990D01*
X145720550Y-87800990D02*
X145672931Y-87848609D01*
X145672931Y-87848609D02*
X145577693Y-87896228D01*
X145577693Y-87896228D02*
X145196741Y-87896228D01*
D11*
X146936905Y-89734819D02*
X146936905Y-88734819D01*
X146936905Y-88734819D02*
X147175000Y-88734819D01*
X147175000Y-88734819D02*
X147317857Y-88782438D01*
X147317857Y-88782438D02*
X147413095Y-88877676D01*
X147413095Y-88877676D02*
X147460714Y-88972914D01*
X147460714Y-88972914D02*
X147508333Y-89163390D01*
X147508333Y-89163390D02*
X147508333Y-89306247D01*
X147508333Y-89306247D02*
X147460714Y-89496723D01*
X147460714Y-89496723D02*
X147413095Y-89591961D01*
X147413095Y-89591961D02*
X147317857Y-89687200D01*
X147317857Y-89687200D02*
X147175000Y-89734819D01*
X147175000Y-89734819D02*
X146936905Y-89734819D01*
X147889286Y-88830057D02*
X147936905Y-88782438D01*
X147936905Y-88782438D02*
X148032143Y-88734819D01*
X148032143Y-88734819D02*
X148270238Y-88734819D01*
X148270238Y-88734819D02*
X148365476Y-88782438D01*
X148365476Y-88782438D02*
X148413095Y-88830057D01*
X148413095Y-88830057D02*
X148460714Y-88925295D01*
X148460714Y-88925295D02*
X148460714Y-89020533D01*
X148460714Y-89020533D02*
X148413095Y-89163390D01*
X148413095Y-89163390D02*
X147841667Y-89734819D01*
X147841667Y-89734819D02*
X148460714Y-89734819D01*
X149238095Y-96004819D02*
X149238095Y-96814342D01*
X149238095Y-96814342D02*
X149285714Y-96909580D01*
X149285714Y-96909580D02*
X149333333Y-96957200D01*
X149333333Y-96957200D02*
X149428571Y-97004819D01*
X149428571Y-97004819D02*
X149619047Y-97004819D01*
X149619047Y-97004819D02*
X149714285Y-96957200D01*
X149714285Y-96957200D02*
X149761904Y-96909580D01*
X149761904Y-96909580D02*
X149809523Y-96814342D01*
X149809523Y-96814342D02*
X149809523Y-96004819D01*
X150809523Y-97004819D02*
X150238095Y-97004819D01*
X150523809Y-97004819D02*
X150523809Y-96004819D01*
X150523809Y-96004819D02*
X150428571Y-96147676D01*
X150428571Y-96147676D02*
X150333333Y-96242914D01*
X150333333Y-96242914D02*
X150238095Y-96290533D01*
X143584819Y-100766666D02*
X143108628Y-101099999D01*
X143584819Y-101338094D02*
X142584819Y-101338094D01*
X142584819Y-101338094D02*
X142584819Y-100957142D01*
X142584819Y-100957142D02*
X142632438Y-100861904D01*
X142632438Y-100861904D02*
X142680057Y-100814285D01*
X142680057Y-100814285D02*
X142775295Y-100766666D01*
X142775295Y-100766666D02*
X142918152Y-100766666D01*
X142918152Y-100766666D02*
X143013390Y-100814285D01*
X143013390Y-100814285D02*
X143061009Y-100861904D01*
X143061009Y-100861904D02*
X143108628Y-100957142D01*
X143108628Y-100957142D02*
X143108628Y-101338094D01*
X143584819Y-99814285D02*
X143584819Y-100385713D01*
X143584819Y-100099999D02*
X142584819Y-100099999D01*
X142584819Y-100099999D02*
X142727676Y-100195237D01*
X142727676Y-100195237D02*
X142822914Y-100290475D01*
X142822914Y-100290475D02*
X142870533Y-100385713D01*
X155384580Y-107241666D02*
X155432200Y-107289285D01*
X155432200Y-107289285D02*
X155479819Y-107432142D01*
X155479819Y-107432142D02*
X155479819Y-107527380D01*
X155479819Y-107527380D02*
X155432200Y-107670237D01*
X155432200Y-107670237D02*
X155336961Y-107765475D01*
X155336961Y-107765475D02*
X155241723Y-107813094D01*
X155241723Y-107813094D02*
X155051247Y-107860713D01*
X155051247Y-107860713D02*
X154908390Y-107860713D01*
X154908390Y-107860713D02*
X154717914Y-107813094D01*
X154717914Y-107813094D02*
X154622676Y-107765475D01*
X154622676Y-107765475D02*
X154527438Y-107670237D01*
X154527438Y-107670237D02*
X154479819Y-107527380D01*
X154479819Y-107527380D02*
X154479819Y-107432142D01*
X154479819Y-107432142D02*
X154527438Y-107289285D01*
X154527438Y-107289285D02*
X154575057Y-107241666D01*
X155479819Y-106289285D02*
X155479819Y-106860713D01*
X155479819Y-106574999D02*
X154479819Y-106574999D01*
X154479819Y-106574999D02*
X154622676Y-106670237D01*
X154622676Y-106670237D02*
X154717914Y-106765475D01*
X154717914Y-106765475D02*
X154765533Y-106860713D01*
X148129819Y-107813094D02*
X147129819Y-107813094D01*
X147129819Y-107813094D02*
X147129819Y-107574999D01*
X147129819Y-107574999D02*
X147177438Y-107432142D01*
X147177438Y-107432142D02*
X147272676Y-107336904D01*
X147272676Y-107336904D02*
X147367914Y-107289285D01*
X147367914Y-107289285D02*
X147558390Y-107241666D01*
X147558390Y-107241666D02*
X147701247Y-107241666D01*
X147701247Y-107241666D02*
X147891723Y-107289285D01*
X147891723Y-107289285D02*
X147986961Y-107336904D01*
X147986961Y-107336904D02*
X148082200Y-107432142D01*
X148082200Y-107432142D02*
X148129819Y-107574999D01*
X148129819Y-107574999D02*
X148129819Y-107813094D01*
X148129819Y-106289285D02*
X148129819Y-106860713D01*
X148129819Y-106574999D02*
X147129819Y-106574999D01*
X147129819Y-106574999D02*
X147272676Y-106670237D01*
X147272676Y-106670237D02*
X147367914Y-106765475D01*
X147367914Y-106765475D02*
X147415533Y-106860713D01*
X150958333Y-87109819D02*
X150625000Y-86633628D01*
X150386905Y-87109819D02*
X150386905Y-86109819D01*
X150386905Y-86109819D02*
X150767857Y-86109819D01*
X150767857Y-86109819D02*
X150863095Y-86157438D01*
X150863095Y-86157438D02*
X150910714Y-86205057D01*
X150910714Y-86205057D02*
X150958333Y-86300295D01*
X150958333Y-86300295D02*
X150958333Y-86443152D01*
X150958333Y-86443152D02*
X150910714Y-86538390D01*
X150910714Y-86538390D02*
X150863095Y-86586009D01*
X150863095Y-86586009D02*
X150767857Y-86633628D01*
X150767857Y-86633628D02*
X150386905Y-86633628D01*
X151339286Y-86205057D02*
X151386905Y-86157438D01*
X151386905Y-86157438D02*
X151482143Y-86109819D01*
X151482143Y-86109819D02*
X151720238Y-86109819D01*
X151720238Y-86109819D02*
X151815476Y-86157438D01*
X151815476Y-86157438D02*
X151863095Y-86205057D01*
X151863095Y-86205057D02*
X151910714Y-86300295D01*
X151910714Y-86300295D02*
X151910714Y-86395533D01*
X151910714Y-86395533D02*
X151863095Y-86538390D01*
X151863095Y-86538390D02*
X151291667Y-87109819D01*
X151291667Y-87109819D02*
X151910714Y-87109819D01*
D12*
%TO.C,D2*%
X146875000Y-88585000D02*
X149160000Y-88585000D01*
X149160000Y-87115000D02*
X146875000Y-87115000D01*
X149160000Y-88585000D02*
X149160000Y-87115000D01*
%TO.C,U1*%
X147690000Y-97265000D02*
X152310000Y-97265000D01*
X152310000Y-102735000D02*
X147690000Y-102735000D01*
X146140000Y-97720000D02*
X145810000Y-97960000D01*
X145810000Y-97480000D01*
X146140000Y-97720000D01*
G36*
X146140000Y-97720000D02*
G01*
X145810000Y-97960000D01*
X145810000Y-97480000D01*
X146140000Y-97720000D01*
G37*
%TO.C,R1*%
X143920000Y-100753641D02*
X143920000Y-100446359D01*
X144680000Y-100753641D02*
X144680000Y-100446359D01*
%TO.C,C1*%
X152715000Y-106209420D02*
X152715000Y-106490580D01*
X153735000Y-106209420D02*
X153735000Y-106490580D01*
%TO.C,D1*%
X148600000Y-104190000D02*
X148600000Y-109700000D01*
X151900000Y-104190000D02*
X148600000Y-104190000D01*
X151900000Y-104190000D02*
X151900000Y-109700000D01*
%TO.C,R2*%
X150971359Y-87445000D02*
X151278641Y-87445000D01*
X150971359Y-88205000D02*
X151278641Y-88205000D01*
%TD*%
%LPC*%
D13*
%TO.C,D2*%
X148462500Y-87850000D03*
X146887500Y-87850000D03*
%TD*%
D14*
%TO.C,U1*%
X147137500Y-97725000D03*
X147137500Y-98375000D03*
X147137500Y-99025000D03*
X147137500Y-99675000D03*
X147137500Y-100325000D03*
X147137500Y-100975000D03*
X147137500Y-101625000D03*
X147137500Y-102275000D03*
X152862500Y-102275000D03*
X152862500Y-101625000D03*
X152862500Y-100975000D03*
X152862500Y-100325000D03*
X152862500Y-99675000D03*
X152862500Y-99025000D03*
X152862500Y-98375000D03*
X152862500Y-97725000D03*
%TD*%
D15*
%TO.C,R1*%
X144300000Y-101110000D03*
X144300000Y-100090000D03*
%TD*%
D16*
%TO.C,C1*%
X153225000Y-105575000D03*
X153225000Y-107125000D03*
%TD*%
D17*
%TO.C,D1*%
X150250000Y-105700000D03*
X150250000Y-109700000D03*
%TD*%
D18*
%TO.C,R2*%
X150615000Y-87825000D03*
X151635000Y-87825000D03*
%TD*%
D19*
%TO.C,J4*%
X143200000Y-110975000D03*
%TD*%
%LPD*%
M02*
