%TF.GenerationSoftware,KiCad,Pcbnew,9.0.6*%
%TF.CreationDate,2026-03-04T15:06:53-08:00*%
%TF.ProjectId,magnetic_encoder,6d61676e-6574-4696-935f-656e636f6465,rev?*%
%TF.SameCoordinates,Original*%
%TF.FileFunction,Legend,Bot*%
%TF.FilePolarity,Positive*%
%FSLAX46Y46*%
G04 Gerber Fmt 4.6, Leading zero omitted, Abs format (unit mm)*
G04 Created by KiCad (PCBNEW 9.0.6) date 2026-03-04 15:06:53*
%MOMM*%
%LPD*%
G01*
G04 APERTURE LIST*
G04 Aperture macros list*
%AMRoundRect*
0 Rectangle with rounded corners*
0 $1 Rounding radius*
0 $2 $3 $4 $5 $6 $7 $8 $9 X,Y pos of 4 corners*
0 Add a 4 corners polygon primitive as box body*
4,1,4,$2,$3,$4,$5,$6,$7,$8,$9,$2,$3,0*
0 Add four circle primitives for the rounded corners*
1,1,$1+$1,$2,$3*
1,1,$1+$1,$4,$5*
1,1,$1+$1,$6,$7*
1,1,$1+$1,$8,$9*
0 Add four rect primitives between the rounded corners*
20,1,$1+$1,$2,$3,$4,$5,0*
20,1,$1+$1,$4,$5,$6,$7,0*
20,1,$1+$1,$6,$7,$8,$9,0*
20,1,$1+$1,$8,$9,$2,$3,0*%
G04 Aperture macros list end*
%ADD10C,0.150000*%
%ADD11C,0.120000*%
%ADD12RoundRect,0.250001X-1.449999X0.499999X-1.449999X-0.499999X1.449999X-0.499999X1.449999X0.499999X0*%
%ADD13RoundRect,0.250000X-1.500000X0.250000X-1.500000X-0.250000X1.500000X-0.250000X1.500000X0.250000X0*%
%ADD14R,1.700000X1.700000*%
%ADD15RoundRect,0.250000X1.500000X-0.250000X1.500000X0.250000X-1.500000X0.250000X-1.500000X-0.250000X0*%
%ADD16RoundRect,0.250001X1.449999X-0.499999X1.449999X0.499999X-1.449999X0.499999X-1.449999X-0.499999X0*%
%ADD17RoundRect,0.250001X-0.499999X-1.449999X0.499999X-1.449999X0.499999X1.449999X-0.499999X1.449999X0*%
%ADD18RoundRect,0.250000X-0.250000X-1.500000X0.250000X-1.500000X0.250000X1.500000X-0.250000X1.500000X0*%
G04 APERTURE END LIST*
D10*
X153154819Y-101691666D02*
X153869104Y-101691666D01*
X153869104Y-101691666D02*
X154011961Y-101644047D01*
X154011961Y-101644047D02*
X154107200Y-101548809D01*
X154107200Y-101548809D02*
X154154819Y-101405952D01*
X154154819Y-101405952D02*
X154154819Y-101310714D01*
X153250057Y-102120238D02*
X153202438Y-102167857D01*
X153202438Y-102167857D02*
X153154819Y-102263095D01*
X153154819Y-102263095D02*
X153154819Y-102501190D01*
X153154819Y-102501190D02*
X153202438Y-102596428D01*
X153202438Y-102596428D02*
X153250057Y-102644047D01*
X153250057Y-102644047D02*
X153345295Y-102691666D01*
X153345295Y-102691666D02*
X153440533Y-102691666D01*
X153440533Y-102691666D02*
X153583390Y-102644047D01*
X153583390Y-102644047D02*
X154154819Y-102072619D01*
X154154819Y-102072619D02*
X154154819Y-102691666D01*
X143533333Y-108049819D02*
X143533333Y-108764104D01*
X143533333Y-108764104D02*
X143580952Y-108906961D01*
X143580952Y-108906961D02*
X143676190Y-109002200D01*
X143676190Y-109002200D02*
X143819047Y-109049819D01*
X143819047Y-109049819D02*
X143914285Y-109049819D01*
X142628571Y-108383152D02*
X142628571Y-109049819D01*
X142866666Y-108002200D02*
X143104761Y-108716485D01*
X143104761Y-108716485D02*
X142485714Y-108716485D01*
X145754819Y-101241666D02*
X146469104Y-101241666D01*
X146469104Y-101241666D02*
X146611961Y-101194047D01*
X146611961Y-101194047D02*
X146707200Y-101098809D01*
X146707200Y-101098809D02*
X146754819Y-100955952D01*
X146754819Y-100955952D02*
X146754819Y-100860714D01*
X146754819Y-102241666D02*
X146754819Y-101670238D01*
X146754819Y-101955952D02*
X145754819Y-101955952D01*
X145754819Y-101955952D02*
X145897676Y-101860714D01*
X145897676Y-101860714D02*
X145992914Y-101765476D01*
X145992914Y-101765476D02*
X146040533Y-101670238D01*
X151133333Y-95654819D02*
X151133333Y-96369104D01*
X151133333Y-96369104D02*
X151180952Y-96511961D01*
X151180952Y-96511961D02*
X151276190Y-96607200D01*
X151276190Y-96607200D02*
X151419047Y-96654819D01*
X151419047Y-96654819D02*
X151514285Y-96654819D01*
X150752380Y-95654819D02*
X150133333Y-95654819D01*
X150133333Y-95654819D02*
X150466666Y-96035771D01*
X150466666Y-96035771D02*
X150323809Y-96035771D01*
X150323809Y-96035771D02*
X150228571Y-96083390D01*
X150228571Y-96083390D02*
X150180952Y-96131009D01*
X150180952Y-96131009D02*
X150133333Y-96226247D01*
X150133333Y-96226247D02*
X150133333Y-96464342D01*
X150133333Y-96464342D02*
X150180952Y-96559580D01*
X150180952Y-96559580D02*
X150228571Y-96607200D01*
X150228571Y-96607200D02*
X150323809Y-96654819D01*
X150323809Y-96654819D02*
X150609523Y-96654819D01*
X150609523Y-96654819D02*
X150704761Y-96607200D01*
X150704761Y-96607200D02*
X150752380Y-96559580D01*
D11*
%TO.C,J2*%
X160440000Y-108085000D02*
X156190000Y-108085000D01*
X156190000Y-108085000D02*
X156190000Y-107065000D01*
X157790000Y-107065000D02*
X157790000Y-105785000D01*
X156190000Y-107065000D02*
X157790000Y-107065000D01*
X157790000Y-98265000D02*
X154900000Y-98265000D01*
X164010000Y-97685000D02*
X164010000Y-106365000D01*
X157790000Y-96985000D02*
X157790000Y-98265000D01*
X156190000Y-96985000D02*
X157790000Y-96985000D01*
X160440000Y-95965000D02*
X156190000Y-95965000D01*
X156190000Y-95965000D02*
X156190000Y-96985000D01*
%TO.C,J4*%
X144580000Y-109595000D02*
X143200000Y-109595000D01*
X144580000Y-110975000D02*
X144580000Y-109595000D01*
X144580000Y-112245000D02*
X144580000Y-112355000D01*
X144580000Y-112245000D02*
X141820000Y-112245000D01*
X144580000Y-112355000D02*
X141820000Y-112355000D01*
X141820000Y-112245000D02*
X141820000Y-112355000D01*
%TO.C,J1*%
X143810000Y-106635000D02*
X143810000Y-105615000D01*
X139560000Y-106635000D02*
X143810000Y-106635000D01*
X143810000Y-105615000D02*
X142210000Y-105615000D01*
X142210000Y-105615000D02*
X142210000Y-104335000D01*
X135990000Y-104915000D02*
X135990000Y-98235000D01*
X142210000Y-104335000D02*
X145100000Y-104335000D01*
X143810000Y-97535000D02*
X142210000Y-97535000D01*
X142210000Y-97535000D02*
X142210000Y-98815000D01*
X143810000Y-96515000D02*
X143810000Y-97535000D01*
X139560000Y-96515000D02*
X143810000Y-96515000D01*
%TO.C,J3*%
X158860000Y-89460000D02*
X158860000Y-93710000D01*
X158860000Y-93710000D02*
X157840000Y-93710000D01*
X157840000Y-92110000D02*
X156560000Y-92110000D01*
X157840000Y-93710000D02*
X157840000Y-92110000D01*
X145040000Y-92110000D02*
X145040000Y-95000000D01*
X144460000Y-85890000D02*
X157140000Y-85890000D01*
X143760000Y-92110000D02*
X145040000Y-92110000D01*
X143760000Y-93710000D02*
X143760000Y-92110000D01*
X142740000Y-89460000D02*
X142740000Y-93710000D01*
X142740000Y-93710000D02*
X143760000Y-93710000D01*
%TD*%
%LPC*%
D12*
%TO.C,J2*%
X162400000Y-107375000D03*
X162400000Y-96675000D03*
D13*
X156650000Y-105025000D03*
X156650000Y-103025000D03*
X156650000Y-101025000D03*
X156650000Y-99025000D03*
%TD*%
D14*
%TO.C,J4*%
X143200000Y-110975000D03*
%TD*%
D15*
%TO.C,J1*%
X143350000Y-103575000D03*
X143350000Y-101575000D03*
X143350000Y-99575000D03*
D16*
X137600000Y-105925000D03*
X137600000Y-97225000D03*
%TD*%
D17*
%TO.C,J3*%
X158150000Y-87500000D03*
X143450000Y-87500000D03*
D18*
X155800000Y-93250000D03*
X153800000Y-93250000D03*
X151800000Y-93250000D03*
X149800000Y-93250000D03*
X147800000Y-93250000D03*
X145800000Y-93250000D03*
%TD*%
%LPD*%
M02*
