%TF.GenerationSoftware,KiCad,Pcbnew,9.0.6*%
%TF.CreationDate,2026-03-04T15:06:52-08:00*%
%TF.ProjectId,magnetic_encoder,6d61676e-6574-4696-935f-656e636f6465,rev?*%
%TF.SameCoordinates,Original*%
%TF.FileFunction,Copper,L1,Top*%
%TF.FilePolarity,Positive*%
%FSLAX46Y46*%
G04 Gerber Fmt 4.6, Leading zero omitted, Abs format (unit mm)*
G04 Created by KiCad (PCBNEW 9.0.6) date 2026-03-04 15:06:52*
%MOMM*%
%LPD*%
G01*
G04 APERTURE LIST*
G04 Aperture macros list*
%AMRoundRect*
0 Rectangle with rounded corners*
0 $1 Rounding radius*
0 $2 $3 $4 $5 $6 $7 $8 $9 X,Y pos of 4 corners*
0 Add a 4 corners polygon primitive as box body*
4,1,4,$2,$3,$4,$5,$6,$7,$8,$9,$2,$3,0*
0 Add four circle primitives for the rounded corners*
1,1,$1+$1,$2,$3*
1,1,$1+$1,$4,$5*
1,1,$1+$1,$6,$7*
1,1,$1+$1,$8,$9*
0 Add four rect primitives between the rounded corners*
20,1,$1+$1,$2,$3,$4,$5,0*
20,1,$1+$1,$4,$5,$6,$7,0*
20,1,$1+$1,$6,$7,$8,$9,0*
20,1,$1+$1,$8,$9,$2,$3,0*%
G04 Aperture macros list end*
%TA.AperFunction,SMDPad,CuDef*%
%ADD10RoundRect,0.135000X-0.135000X-0.185000X0.135000X-0.185000X0.135000X0.185000X-0.135000X0.185000X0*%
%TD*%
%TA.AperFunction,SMDPad,CuDef*%
%ADD11RoundRect,0.218750X0.218750X0.256250X-0.218750X0.256250X-0.218750X-0.256250X0.218750X-0.256250X0*%
%TD*%
%TA.AperFunction,SMDPad,CuDef*%
%ADD12RoundRect,0.135000X0.185000X-0.135000X0.185000X0.135000X-0.185000X0.135000X-0.185000X-0.135000X0*%
%TD*%
%TA.AperFunction,ComponentPad*%
%ADD13R,1.700000X1.700000*%
%TD*%
%TA.AperFunction,SMDPad,CuDef*%
%ADD14RoundRect,0.225000X-0.250000X0.225000X-0.250000X-0.225000X0.250000X-0.225000X0.250000X0.225000X0*%
%TD*%
%TA.AperFunction,SMDPad,CuDef*%
%ADD15RoundRect,0.100000X-0.637500X-0.100000X0.637500X-0.100000X0.637500X0.100000X-0.637500X0.100000X0*%
%TD*%
%TA.AperFunction,SMDPad,CuDef*%
%ADD16RoundRect,0.250000X-0.650000X1.000000X-0.650000X-1.000000X0.650000X-1.000000X0.650000X1.000000X0*%
%TD*%
%TA.AperFunction,ViaPad*%
%ADD17C,0.850000*%
%TD*%
%TA.AperFunction,Conductor*%
%ADD18C,0.200000*%
%TD*%
G04 APERTURE END LIST*
D10*
%TO.P,R2,1*%
%TO.N,Net-(D2-K)*%
X150615000Y-87825000D03*
%TO.P,R2,2*%
%TO.N,GND_CONN*%
X151635000Y-87825000D03*
%TD*%
D11*
%TO.P,D2,1,K*%
%TO.N,Net-(D2-K)*%
X148462500Y-87850000D03*
%TO.P,D2,2,A*%
%TO.N,5V_IN*%
X146887500Y-87850000D03*
%TD*%
D12*
%TO.P,R1,1*%
%TO.N,GND_CONN*%
X144300000Y-101110000D03*
%TO.P,R1,2*%
%TO.N,CAL_EN*%
X144300000Y-100090000D03*
%TD*%
D13*
%TO.P,J4,1,Pin_1*%
%TO.N,CAL_EN*%
X143200000Y-110975000D03*
%TD*%
D14*
%TO.P,C1,1*%
%TO.N,5V_IN*%
X153225000Y-105575000D03*
%TO.P,C1,2*%
%TO.N,GND_CONN*%
X153225000Y-107125000D03*
%TD*%
D15*
%TO.P,U1,1,U*%
%TO.N,U_OUT *%
X147137500Y-97725000D03*
%TO.P,U1,2,V*%
%TO.N,V_OUT *%
X147137500Y-98375000D03*
%TO.P,U1,3,W*%
%TO.N,W_OUT *%
X147137500Y-99025000D03*
%TO.P,U1,4,CAL_EN*%
%TO.N,CAL_EN*%
X147137500Y-99675000D03*
%TO.P,U1,5,CIPO*%
%TO.N,CIPO*%
X147137500Y-100325000D03*
%TO.P,U1,6,PICO*%
%TO.N,PICO*%
X147137500Y-100975000D03*
%TO.P,U1,7,SCK*%
%TO.N,SCK *%
X147137500Y-101625000D03*
%TO.P,U1,8,CSN*%
%TO.N,CSK *%
X147137500Y-102275000D03*
%TO.P,U1,9,VDD*%
%TO.N,5V_IN*%
X152862500Y-102275000D03*
%TO.P,U1,10,PWM_OUT*%
%TO.N,PWM_OUT*%
X152862500Y-101625000D03*
%TO.P,U1,11,TEST*%
%TO.N,GND_CONN*%
X152862500Y-100975000D03*
%TO.P,U1,12,GND*%
X152862500Y-100325000D03*
%TO.P,U1,13,TEST_EN*%
X152862500Y-99675000D03*
%TO.P,U1,14,Z*%
%TO.N,Z_OUT*%
X152862500Y-99025000D03*
%TO.P,U1,15,B*%
%TO.N,B_OUT*%
X152862500Y-98375000D03*
%TO.P,U1,16,A*%
%TO.N,A_OUT*%
X152862500Y-97725000D03*
%TD*%
D16*
%TO.P,D1,1,A1*%
%TO.N,5V_IN*%
X150250000Y-105700000D03*
%TO.P,D1,2,A2*%
%TO.N,GND_CONN*%
X150250000Y-109700000D03*
%TD*%
D17*
%TO.N,GND_CONN*%
X147275000Y-96000000D03*
X153750000Y-87875000D03*
%TO.N,5V_IN*%
X145650000Y-89225000D03*
X151600000Y-102300000D03*
%TO.N,CIPO*%
X148912500Y-95787500D03*
%TO.N,PICO*%
X149575734Y-99075736D03*
%TO.N,SCK *%
X153175000Y-95875000D03*
%TO.N,CSK *%
X150200000Y-102250000D03*
%TO.N,V_OUT *%
X140925000Y-100600000D03*
%TO.N,W_OUT *%
X145689590Y-99067160D03*
%TO.N,U_OUT *%
X144175000Y-97275000D03*
%TO.N,GND_CONN*%
X151225000Y-101250000D03*
%TO.N,PWM_OUT*%
X153900000Y-104000000D03*
%TO.N,Z_OUT*%
X154275000Y-100400000D03*
%TO.N,B_OUT*%
X154425000Y-98175000D03*
%TO.N,A_OUT*%
X155600000Y-97250000D03*
%TO.N,5V_IN*%
X145800000Y-95950000D03*
%TO.N,GND_CONN*%
X152550000Y-108650000D03*
%TD*%
D18*
%TO.N,CIPO*%
X147957899Y-100325000D02*
X147137500Y-100325000D01*
X148912500Y-95787500D02*
X148325000Y-96375000D01*
X148325000Y-96375000D02*
X148325000Y-99957899D01*
X148325000Y-99957899D02*
X147957899Y-100325000D01*
%TO.N,SCK *%
X153175000Y-95875000D02*
X151525000Y-97525000D01*
X151525000Y-97525000D02*
X151525000Y-98750000D01*
X151525000Y-98750000D02*
X148650000Y-101625000D01*
X148650000Y-101625000D02*
X147137500Y-101625000D01*
%TO.N,GND_CONN*%
X153700000Y-87825000D02*
X153750000Y-87875000D01*
X151635000Y-87825000D02*
X153700000Y-87825000D01*
%TO.N,Net-(D2-K)*%
X148462500Y-87850000D02*
X150590000Y-87850000D01*
X150590000Y-87850000D02*
X150615000Y-87825000D01*
%TO.N,5V_IN*%
X145650000Y-88700000D02*
X146500000Y-87850000D01*
X145650000Y-89225000D02*
X145650000Y-88700000D01*
X146500000Y-87850000D02*
X146887500Y-87850000D01*
%TO.N,GND_CONN*%
X151850000Y-100325000D02*
X151850000Y-100625000D01*
X151850000Y-100625000D02*
X151225000Y-101250000D01*
X152862500Y-100975000D02*
X151500000Y-100975000D01*
X151500000Y-100975000D02*
X151225000Y-101250000D01*
X151225000Y-100950000D02*
X151225000Y-101250000D01*
%TO.N,V_OUT *%
X147137500Y-98375000D02*
X147012500Y-98250000D01*
X143275000Y-98250000D02*
X140925000Y-100600000D01*
X147012500Y-98250000D02*
X143275000Y-98250000D01*
%TO.N,Z_OUT*%
X154275000Y-99700001D02*
X153599999Y-99025000D01*
X154275000Y-100400000D02*
X154275000Y-99700001D01*
X153599999Y-99025000D02*
X152862500Y-99025000D01*
%TO.N,B_OUT*%
X152862500Y-98375000D02*
X154225000Y-98375000D01*
X154225000Y-98375000D02*
X154425000Y-98175000D01*
%TO.N,A_OUT*%
X152862500Y-97725000D02*
X153337500Y-97250000D01*
X153337500Y-97250000D02*
X155600000Y-97250000D01*
%TO.N,W_OUT *%
X147137500Y-99025000D02*
X145731750Y-99025000D01*
X145731750Y-99025000D02*
X145689590Y-99067160D01*
%TO.N,CAL_EN*%
X144300000Y-100090000D02*
X143850000Y-100090000D01*
X143850000Y-100090000D02*
X143200000Y-100740000D01*
X147137500Y-99675000D02*
X146400001Y-99675000D01*
X146400001Y-99675000D02*
X145985001Y-100090000D01*
X145985001Y-100090000D02*
X144300000Y-100090000D01*
%TO.N,U_OUT *%
X147137500Y-97725000D02*
X144625000Y-97725000D01*
X144625000Y-97725000D02*
X144175000Y-97275000D01*
%TO.N,CAL_EN*%
X143200000Y-100740000D02*
X143200000Y-110975000D01*
%TO.N,5V_IN*%
X151625000Y-102275000D02*
X151600000Y-102300000D01*
X152862500Y-102275000D02*
X151625000Y-102275000D01*
%TO.N,PICO*%
X149575734Y-99274265D02*
X149575734Y-99075736D01*
X147137500Y-100975000D02*
X147874999Y-100975000D01*
X147874999Y-100975000D02*
X149575734Y-99274265D01*
%TO.N,CSK *%
X150175000Y-102275000D02*
X150200000Y-102250000D01*
X147137500Y-102275000D02*
X150175000Y-102275000D01*
%TO.N,GND_CONN*%
X152862500Y-99675000D02*
X152000000Y-99675000D01*
X152000000Y-99675000D02*
X151850000Y-99825000D01*
X151850000Y-99825000D02*
X151850000Y-100325000D01*
X152862500Y-100325000D02*
X151850000Y-100325000D01*
%TO.N,PWM_OUT*%
X153519870Y-101625000D02*
X153900000Y-102005130D01*
X152862500Y-101625000D02*
X153519870Y-101625000D01*
X153900000Y-102005130D02*
X153900000Y-104000000D01*
%TO.N,CAL_EN*%
X147072500Y-99740000D02*
X147137500Y-99675000D01*
%TO.N,GND_CONN*%
X153225000Y-107125000D02*
X153225000Y-107975000D01*
X153225000Y-107975000D02*
X152550000Y-108650000D01*
X151500000Y-109700000D02*
X152550000Y-108650000D01*
X150250000Y-109700000D02*
X151500000Y-109700000D01*
%TO.N,5V_IN*%
X153225000Y-105575000D02*
X150375000Y-105575000D01*
X150375000Y-105575000D02*
X150250000Y-105700000D01*
X152862500Y-102275000D02*
X150250000Y-104887500D01*
X150250000Y-104887500D02*
X150250000Y-105700000D01*
%TD*%
M02*
